<mxfile host="app.diagrams.net" agent="Mozilla/5.0 (Windows NT 10.0; Win64; x64) AppleWebKit/537.36 (KHTML, like Gecko) Chrome/130.0.0.0 Safari/537.36" version="24.8.3">
  <diagram name="Seite-1" id="Sn8ELlQN1we2L1uQBhi2">
    <mxGraphModel dx="1433" dy="746" grid="1" gridSize="10" guides="1" tooltips="1" connect="1" arrows="1" fold="1" page="1" pageScale="1" pageWidth="827" pageHeight="1169" math="0" shadow="0">
      <root>
        <mxCell id="0" />
        <mxCell id="1" parent="0" />
        <mxCell id="R6rj-PQ8CESsrbwPXBKa-22" style="edgeStyle=orthogonalEdgeStyle;rounded=0;orthogonalLoop=1;jettySize=auto;html=1;exitX=1;exitY=0.5;exitDx=0;exitDy=0;" edge="1" parent="1" source="R6rj-PQ8CESsrbwPXBKa-1" target="R6rj-PQ8CESsrbwPXBKa-20">
          <mxGeometry relative="1" as="geometry" />
        </mxCell>
        <mxCell id="R6rj-PQ8CESsrbwPXBKa-1" value="GPS GEN&lt;div&gt;(10 Hz)&lt;/div&gt;" style="rounded=0;whiteSpace=wrap;html=1;" vertex="1" parent="1">
          <mxGeometry x="40" y="190" width="80" height="70" as="geometry" />
        </mxCell>
        <mxCell id="R6rj-PQ8CESsrbwPXBKa-21" style="edgeStyle=orthogonalEdgeStyle;rounded=0;orthogonalLoop=1;jettySize=auto;html=1;exitX=1;exitY=0.5;exitDx=0;exitDy=0;" edge="1" parent="1" source="R6rj-PQ8CESsrbwPXBKa-2" target="R6rj-PQ8CESsrbwPXBKa-12">
          <mxGeometry relative="1" as="geometry" />
        </mxCell>
        <mxCell id="R6rj-PQ8CESsrbwPXBKa-2" value="Sensor GEN&lt;div&gt;(2 Hz)&lt;/div&gt;" style="rounded=0;whiteSpace=wrap;html=1;" vertex="1" parent="1">
          <mxGeometry x="40" y="340" width="80" height="70" as="geometry" />
        </mxCell>
        <mxCell id="R6rj-PQ8CESsrbwPXBKa-7" value="Kafka Broker 1" style="rounded=0;whiteSpace=wrap;html=1;" vertex="1" parent="1">
          <mxGeometry x="460" y="160" width="120" height="50" as="geometry" />
        </mxCell>
        <mxCell id="R6rj-PQ8CESsrbwPXBKa-8" value="Kafka Broker 2" style="rounded=0;whiteSpace=wrap;html=1;" vertex="1" parent="1">
          <mxGeometry x="460" y="290" width="120" height="60" as="geometry" />
        </mxCell>
        <mxCell id="R6rj-PQ8CESsrbwPXBKa-9" value="Kafka Broker 3" style="rounded=0;whiteSpace=wrap;html=1;" vertex="1" parent="1">
          <mxGeometry x="460" y="430" width="120" height="60" as="geometry" />
        </mxCell>
        <mxCell id="R6rj-PQ8CESsrbwPXBKa-50" style="edgeStyle=orthogonalEdgeStyle;rounded=0;orthogonalLoop=1;jettySize=auto;html=1;exitX=1;exitY=0.5;exitDx=0;exitDy=0;entryX=0;entryY=0.5;entryDx=0;entryDy=0;" edge="1" parent="1" source="R6rj-PQ8CESsrbwPXBKa-10" target="R6rj-PQ8CESsrbwPXBKa-44">
          <mxGeometry relative="1" as="geometry" />
        </mxCell>
        <mxCell id="R6rj-PQ8CESsrbwPXBKa-10" value="Kafka Consumer GPS" style="rounded=0;whiteSpace=wrap;html=1;" vertex="1" parent="1">
          <mxGeometry x="942" y="150" width="120" height="60" as="geometry" />
        </mxCell>
        <mxCell id="R6rj-PQ8CESsrbwPXBKa-11" value="Kafka Consumer All" style="rounded=0;whiteSpace=wrap;html=1;" vertex="1" parent="1">
          <mxGeometry x="941" y="270" width="120" height="60" as="geometry" />
        </mxCell>
        <mxCell id="R6rj-PQ8CESsrbwPXBKa-26" style="edgeStyle=orthogonalEdgeStyle;rounded=0;orthogonalLoop=1;jettySize=auto;html=1;exitX=1;exitY=0.5;exitDx=0;exitDy=0;entryX=0;entryY=0.5;entryDx=0;entryDy=0;fillColor=#dae8fc;strokeColor=#6c8ebf;" edge="1" parent="1" source="R6rj-PQ8CESsrbwPXBKa-12" target="R6rj-PQ8CESsrbwPXBKa-19">
          <mxGeometry relative="1" as="geometry">
            <Array as="points">
              <mxPoint x="370" y="375" />
              <mxPoint x="370" y="500" />
            </Array>
          </mxGeometry>
        </mxCell>
        <mxCell id="R6rj-PQ8CESsrbwPXBKa-27" style="edgeStyle=orthogonalEdgeStyle;rounded=0;orthogonalLoop=1;jettySize=auto;html=1;exitX=1;exitY=0.5;exitDx=0;exitDy=0;entryX=0;entryY=0.5;entryDx=0;entryDy=0;fillColor=#dae8fc;strokeColor=#6c8ebf;" edge="1" parent="1" source="R6rj-PQ8CESsrbwPXBKa-12" target="R6rj-PQ8CESsrbwPXBKa-17">
          <mxGeometry relative="1" as="geometry">
            <Array as="points">
              <mxPoint x="370" y="375" />
              <mxPoint x="370" y="380" />
            </Array>
          </mxGeometry>
        </mxCell>
        <mxCell id="R6rj-PQ8CESsrbwPXBKa-28" style="edgeStyle=orthogonalEdgeStyle;rounded=0;orthogonalLoop=1;jettySize=auto;html=1;exitX=1;exitY=0.5;exitDx=0;exitDy=0;entryX=0;entryY=0.5;entryDx=0;entryDy=0;fillColor=#dae8fc;strokeColor=#6c8ebf;" edge="1" parent="1" source="R6rj-PQ8CESsrbwPXBKa-12" target="R6rj-PQ8CESsrbwPXBKa-14">
          <mxGeometry relative="1" as="geometry">
            <Array as="points">
              <mxPoint x="370" y="375" />
              <mxPoint x="370" y="240" />
            </Array>
          </mxGeometry>
        </mxCell>
        <mxCell id="R6rj-PQ8CESsrbwPXBKa-12" value="Kafka Producer&lt;div&gt;Sensor&lt;/div&gt;" style="rounded=0;whiteSpace=wrap;html=1;" vertex="1" parent="1">
          <mxGeometry x="210" y="345" width="120" height="60" as="geometry" />
        </mxCell>
        <mxCell id="R6rj-PQ8CESsrbwPXBKa-34" style="edgeStyle=orthogonalEdgeStyle;rounded=0;orthogonalLoop=1;jettySize=auto;html=1;exitX=1;exitY=0.5;exitDx=0;exitDy=0;fillColor=#f8cecc;strokeColor=#b85450;" edge="1" parent="1" source="R6rj-PQ8CESsrbwPXBKa-13" target="R6rj-PQ8CESsrbwPXBKa-10">
          <mxGeometry relative="1" as="geometry">
            <Array as="points">
              <mxPoint x="700" y="220" />
              <mxPoint x="700" y="180" />
            </Array>
          </mxGeometry>
        </mxCell>
        <mxCell id="R6rj-PQ8CESsrbwPXBKa-13" value="gps_data" style="rounded=0;whiteSpace=wrap;html=1;" vertex="1" parent="1">
          <mxGeometry x="460" y="210" width="120" height="20" as="geometry" />
        </mxCell>
        <mxCell id="R6rj-PQ8CESsrbwPXBKa-33" style="edgeStyle=orthogonalEdgeStyle;rounded=0;orthogonalLoop=1;jettySize=auto;html=1;exitX=1;exitY=0.5;exitDx=0;exitDy=0;entryX=0;entryY=0.5;entryDx=0;entryDy=0;fillColor=#dae8fc;strokeColor=#6c8ebf;" edge="1" parent="1" source="R6rj-PQ8CESsrbwPXBKa-14" target="R6rj-PQ8CESsrbwPXBKa-29">
          <mxGeometry relative="1" as="geometry" />
        </mxCell>
        <mxCell id="R6rj-PQ8CESsrbwPXBKa-14" value="sensor_data" style="rounded=0;whiteSpace=wrap;html=1;" vertex="1" parent="1">
          <mxGeometry x="460" y="230" width="120" height="20" as="geometry" />
        </mxCell>
        <mxCell id="R6rj-PQ8CESsrbwPXBKa-36" style="edgeStyle=orthogonalEdgeStyle;rounded=0;orthogonalLoop=1;jettySize=auto;html=1;exitX=1;exitY=0.5;exitDx=0;exitDy=0;entryX=0;entryY=0.5;entryDx=0;entryDy=0;fillColor=#f8cecc;strokeColor=#b85450;" edge="1" parent="1" source="R6rj-PQ8CESsrbwPXBKa-16" target="R6rj-PQ8CESsrbwPXBKa-10">
          <mxGeometry relative="1" as="geometry">
            <Array as="points">
              <mxPoint x="700" y="360" />
              <mxPoint x="700" y="180" />
            </Array>
          </mxGeometry>
        </mxCell>
        <mxCell id="R6rj-PQ8CESsrbwPXBKa-16" value="gps_data" style="rounded=0;whiteSpace=wrap;html=1;" vertex="1" parent="1">
          <mxGeometry x="460" y="350" width="120" height="20" as="geometry" />
        </mxCell>
        <mxCell id="R6rj-PQ8CESsrbwPXBKa-32" style="edgeStyle=orthogonalEdgeStyle;rounded=0;orthogonalLoop=1;jettySize=auto;html=1;exitX=1;exitY=0.5;exitDx=0;exitDy=0;entryX=0;entryY=0.5;entryDx=0;entryDy=0;fillColor=#dae8fc;strokeColor=#6c8ebf;" edge="1" parent="1" source="R6rj-PQ8CESsrbwPXBKa-17" target="R6rj-PQ8CESsrbwPXBKa-29">
          <mxGeometry relative="1" as="geometry" />
        </mxCell>
        <mxCell id="R6rj-PQ8CESsrbwPXBKa-17" value="sensor_data" style="rounded=0;whiteSpace=wrap;html=1;" vertex="1" parent="1">
          <mxGeometry x="460" y="370" width="120" height="20" as="geometry" />
        </mxCell>
        <mxCell id="R6rj-PQ8CESsrbwPXBKa-37" style="edgeStyle=orthogonalEdgeStyle;rounded=0;orthogonalLoop=1;jettySize=auto;html=1;exitX=1;exitY=0.5;exitDx=0;exitDy=0;entryX=0;entryY=0.5;entryDx=0;entryDy=0;fillColor=#f8cecc;strokeColor=#b85450;" edge="1" parent="1" source="R6rj-PQ8CESsrbwPXBKa-18" target="R6rj-PQ8CESsrbwPXBKa-10">
          <mxGeometry relative="1" as="geometry">
            <Array as="points">
              <mxPoint x="700" y="480" />
              <mxPoint x="700" y="180" />
            </Array>
          </mxGeometry>
        </mxCell>
        <mxCell id="R6rj-PQ8CESsrbwPXBKa-18" value="gps_data" style="rounded=0;whiteSpace=wrap;html=1;" vertex="1" parent="1">
          <mxGeometry x="460" y="470" width="120" height="20" as="geometry" />
        </mxCell>
        <mxCell id="R6rj-PQ8CESsrbwPXBKa-30" style="edgeStyle=orthogonalEdgeStyle;rounded=0;orthogonalLoop=1;jettySize=auto;html=1;exitX=1;exitY=0.5;exitDx=0;exitDy=0;entryX=0;entryY=0.5;entryDx=0;entryDy=0;fillColor=#dae8fc;strokeColor=#6c8ebf;" edge="1" parent="1" source="R6rj-PQ8CESsrbwPXBKa-19" target="R6rj-PQ8CESsrbwPXBKa-29">
          <mxGeometry relative="1" as="geometry" />
        </mxCell>
        <mxCell id="R6rj-PQ8CESsrbwPXBKa-19" value="sensor_data" style="rounded=0;whiteSpace=wrap;html=1;" vertex="1" parent="1">
          <mxGeometry x="460" y="490" width="120" height="20" as="geometry" />
        </mxCell>
        <mxCell id="R6rj-PQ8CESsrbwPXBKa-23" style="edgeStyle=orthogonalEdgeStyle;rounded=0;orthogonalLoop=1;jettySize=auto;html=1;exitX=1;exitY=0.5;exitDx=0;exitDy=0;entryX=0;entryY=0.5;entryDx=0;entryDy=0;fillColor=#f8cecc;strokeColor=#b85450;" edge="1" parent="1" source="R6rj-PQ8CESsrbwPXBKa-20" target="R6rj-PQ8CESsrbwPXBKa-13">
          <mxGeometry relative="1" as="geometry" />
        </mxCell>
        <mxCell id="R6rj-PQ8CESsrbwPXBKa-24" style="edgeStyle=orthogonalEdgeStyle;rounded=0;orthogonalLoop=1;jettySize=auto;html=1;exitX=1;exitY=0.5;exitDx=0;exitDy=0;entryX=0;entryY=0.5;entryDx=0;entryDy=0;fillColor=#f8cecc;strokeColor=#b85450;" edge="1" parent="1" source="R6rj-PQ8CESsrbwPXBKa-20" target="R6rj-PQ8CESsrbwPXBKa-16">
          <mxGeometry relative="1" as="geometry" />
        </mxCell>
        <mxCell id="R6rj-PQ8CESsrbwPXBKa-25" style="edgeStyle=orthogonalEdgeStyle;rounded=0;orthogonalLoop=1;jettySize=auto;html=1;exitX=1;exitY=0.5;exitDx=0;exitDy=0;entryX=0;entryY=0.5;entryDx=0;entryDy=0;fillColor=#f8cecc;strokeColor=#b85450;" edge="1" parent="1" source="R6rj-PQ8CESsrbwPXBKa-20" target="R6rj-PQ8CESsrbwPXBKa-18">
          <mxGeometry relative="1" as="geometry" />
        </mxCell>
        <mxCell id="R6rj-PQ8CESsrbwPXBKa-20" value="Kafka Producer&lt;br&gt;GPS" style="rounded=0;whiteSpace=wrap;html=1;" vertex="1" parent="1">
          <mxGeometry x="210" y="195" width="120" height="60" as="geometry" />
        </mxCell>
        <mxCell id="R6rj-PQ8CESsrbwPXBKa-43" style="edgeStyle=orthogonalEdgeStyle;rounded=0;orthogonalLoop=1;jettySize=auto;html=1;exitX=1;exitY=0.5;exitDx=0;exitDy=0;" edge="1" parent="1" source="R6rj-PQ8CESsrbwPXBKa-29" target="R6rj-PQ8CESsrbwPXBKa-41">
          <mxGeometry relative="1" as="geometry" />
        </mxCell>
        <mxCell id="R6rj-PQ8CESsrbwPXBKa-29" value="Kafka Consumer Sensor" style="rounded=0;whiteSpace=wrap;html=1;" vertex="1" parent="1">
          <mxGeometry x="941" y="390" width="120" height="60" as="geometry" />
        </mxCell>
        <mxCell id="R6rj-PQ8CESsrbwPXBKa-38" value="" style="endArrow=classic;html=1;rounded=0;fillColor=#f8cecc;strokeColor=#b85450;" edge="1" parent="1">
          <mxGeometry width="50" height="50" relative="1" as="geometry">
            <mxPoint x="700" y="308" as="sourcePoint" />
            <mxPoint x="940" y="308" as="targetPoint" />
          </mxGeometry>
        </mxCell>
        <mxCell id="R6rj-PQ8CESsrbwPXBKa-39" value="" style="endArrow=classic;html=1;rounded=0;fillColor=#dae8fc;strokeColor=#6c8ebf;" edge="1" parent="1">
          <mxGeometry width="50" height="50" relative="1" as="geometry">
            <mxPoint x="760" y="300" as="sourcePoint" />
            <mxPoint x="940" y="300" as="targetPoint" />
          </mxGeometry>
        </mxCell>
        <mxCell id="R6rj-PQ8CESsrbwPXBKa-40" value="aggregated_gps_data.csv" style="shadow=0;dashed=0;html=1;strokeColor=none;fillColor=#4495D1;labelPosition=center;verticalLabelPosition=bottom;verticalAlign=top;align=center;outlineConnect=0;shape=mxgraph.veeam.local_disk;" vertex="1" parent="1">
          <mxGeometry x="1340" y="151.6" width="57.2" height="56.8" as="geometry" />
        </mxCell>
        <mxCell id="R6rj-PQ8CESsrbwPXBKa-41" value="event_data.txt" style="shadow=0;dashed=0;html=1;strokeColor=none;fillColor=#4495D1;labelPosition=center;verticalLabelPosition=bottom;verticalAlign=top;align=center;outlineConnect=0;shape=mxgraph.veeam.local_disk;" vertex="1" parent="1">
          <mxGeometry x="1212" y="391.6" width="57.2" height="56.8" as="geometry" />
        </mxCell>
        <mxCell id="R6rj-PQ8CESsrbwPXBKa-51" style="edgeStyle=orthogonalEdgeStyle;rounded=0;orthogonalLoop=1;jettySize=auto;html=1;exitX=1;exitY=0.5;exitDx=0;exitDy=0;" edge="1" parent="1" source="R6rj-PQ8CESsrbwPXBKa-44" target="R6rj-PQ8CESsrbwPXBKa-40">
          <mxGeometry relative="1" as="geometry" />
        </mxCell>
        <mxCell id="R6rj-PQ8CESsrbwPXBKa-52" style="edgeStyle=orthogonalEdgeStyle;rounded=0;orthogonalLoop=1;jettySize=auto;html=1;exitX=1;exitY=0.5;exitDx=0;exitDy=0;entryX=1;entryY=0.5;entryDx=0;entryDy=0;" edge="1" parent="1" source="R6rj-PQ8CESsrbwPXBKa-44" target="R6rj-PQ8CESsrbwPXBKa-49">
          <mxGeometry relative="1" as="geometry">
            <Array as="points">
              <mxPoint x="1280" y="180" />
              <mxPoint x="1280" y="80" />
            </Array>
          </mxGeometry>
        </mxCell>
        <mxCell id="R6rj-PQ8CESsrbwPXBKa-44" value="Aggregate latitude and longitude (2s)" style="rounded=0;whiteSpace=wrap;html=1;" vertex="1" parent="1">
          <mxGeometry x="1120" y="150" width="110" height="60" as="geometry" />
        </mxCell>
        <mxCell id="R6rj-PQ8CESsrbwPXBKa-57" style="edgeStyle=orthogonalEdgeStyle;rounded=0;orthogonalLoop=1;jettySize=auto;html=1;exitX=1;exitY=0.5;exitDx=0;exitDy=0;entryX=0;entryY=0.5;entryDx=0;entryDy=0;fillColor=#d5e8d4;strokeColor=#82b366;" edge="1" parent="1" source="R6rj-PQ8CESsrbwPXBKa-46" target="R6rj-PQ8CESsrbwPXBKa-56">
          <mxGeometry relative="1" as="geometry">
            <Array as="points">
              <mxPoint x="820" y="260" />
              <mxPoint x="820" y="540" />
            </Array>
          </mxGeometry>
        </mxCell>
        <mxCell id="R6rj-PQ8CESsrbwPXBKa-46" value="agg_gps_topic" style="rounded=0;whiteSpace=wrap;html=1;" vertex="1" parent="1">
          <mxGeometry x="460" y="250" width="120" height="20" as="geometry" />
        </mxCell>
        <mxCell id="R6rj-PQ8CESsrbwPXBKa-58" style="edgeStyle=orthogonalEdgeStyle;rounded=0;orthogonalLoop=1;jettySize=auto;html=1;exitX=1;exitY=0.5;exitDx=0;exitDy=0;entryX=0;entryY=0.5;entryDx=0;entryDy=0;fillColor=#d5e8d4;strokeColor=#82b366;" edge="1" parent="1" source="R6rj-PQ8CESsrbwPXBKa-47" target="R6rj-PQ8CESsrbwPXBKa-56">
          <mxGeometry relative="1" as="geometry">
            <Array as="points">
              <mxPoint x="820" y="402" />
              <mxPoint x="820" y="540" />
            </Array>
          </mxGeometry>
        </mxCell>
        <mxCell id="R6rj-PQ8CESsrbwPXBKa-47" value="agg_gps_topic" style="rounded=0;whiteSpace=wrap;html=1;" vertex="1" parent="1">
          <mxGeometry x="460" y="391.6" width="120" height="20" as="geometry" />
        </mxCell>
        <mxCell id="R6rj-PQ8CESsrbwPXBKa-59" style="edgeStyle=orthogonalEdgeStyle;rounded=0;orthogonalLoop=1;jettySize=auto;html=1;exitX=1;exitY=0.5;exitDx=0;exitDy=0;fillColor=#d5e8d4;strokeColor=#82b366;" edge="1" parent="1" source="R6rj-PQ8CESsrbwPXBKa-48" target="R6rj-PQ8CESsrbwPXBKa-56">
          <mxGeometry relative="1" as="geometry">
            <Array as="points">
              <mxPoint x="820" y="520" />
              <mxPoint x="820" y="540" />
            </Array>
          </mxGeometry>
        </mxCell>
        <mxCell id="R6rj-PQ8CESsrbwPXBKa-48" value="agg_gps_topic" style="rounded=0;whiteSpace=wrap;html=1;" vertex="1" parent="1">
          <mxGeometry x="460" y="510" width="120" height="20" as="geometry" />
        </mxCell>
        <mxCell id="R6rj-PQ8CESsrbwPXBKa-53" style="edgeStyle=orthogonalEdgeStyle;rounded=0;orthogonalLoop=1;jettySize=auto;html=1;exitX=0;exitY=0.5;exitDx=0;exitDy=0;entryX=0;entryY=0.5;entryDx=0;entryDy=0;fillColor=#d5e8d4;strokeColor=#82b366;" edge="1" parent="1" source="R6rj-PQ8CESsrbwPXBKa-49" target="R6rj-PQ8CESsrbwPXBKa-46">
          <mxGeometry relative="1" as="geometry" />
        </mxCell>
        <mxCell id="R6rj-PQ8CESsrbwPXBKa-54" style="edgeStyle=orthogonalEdgeStyle;rounded=0;orthogonalLoop=1;jettySize=auto;html=1;exitX=0;exitY=0.5;exitDx=0;exitDy=0;entryX=0;entryY=0.5;entryDx=0;entryDy=0;fillColor=#d5e8d4;strokeColor=#82b366;" edge="1" parent="1" source="R6rj-PQ8CESsrbwPXBKa-49" target="R6rj-PQ8CESsrbwPXBKa-47">
          <mxGeometry relative="1" as="geometry" />
        </mxCell>
        <mxCell id="R6rj-PQ8CESsrbwPXBKa-55" style="edgeStyle=orthogonalEdgeStyle;rounded=0;orthogonalLoop=1;jettySize=auto;html=1;exitX=0;exitY=0.5;exitDx=0;exitDy=0;entryX=0;entryY=0.5;entryDx=0;entryDy=0;fillColor=#d5e8d4;strokeColor=#82b366;" edge="1" parent="1" source="R6rj-PQ8CESsrbwPXBKa-49" target="R6rj-PQ8CESsrbwPXBKa-48">
          <mxGeometry relative="1" as="geometry" />
        </mxCell>
        <mxCell id="R6rj-PQ8CESsrbwPXBKa-49" value="Kafka Producer&lt;br&gt;Aggregate GPS data" style="rounded=0;whiteSpace=wrap;html=1;" vertex="1" parent="1">
          <mxGeometry x="1110" y="50" width="120" height="60" as="geometry" />
        </mxCell>
        <mxCell id="R6rj-PQ8CESsrbwPXBKa-56" value="Kafka Consumer Aggregated GPS&amp;nbsp;" style="rounded=0;whiteSpace=wrap;html=1;" vertex="1" parent="1">
          <mxGeometry x="942" y="510" width="120" height="60" as="geometry" />
        </mxCell>
      </root>
    </mxGraphModel>
  </diagram>
</mxfile>
